# xmcd
#
# Track frame offsets:
#	150
#	20348
#	40708
#	61059
#
# Disc length: 1085 seconds
#
# Revision: 0
# Processed by: cddbd v1.5.1PL0 Copyright (c) Steve Scherf et al.
# Submitted via: audiograbber 1.83.01
#
DISCID=24043b04
DTITLE=Linecey - Linecey (Single)
DYEAR=2004
DGENRE=Ballad
TTITLE0=Tant de joie, tant d'amour
TTITLE1=Tant de joie, tant d'amour (Instrumental)
TTITLE2=Your Love's Right
TTITLE3=Your Love's Right (Instrumental)
EXTD=Songs sung in both French and English.
EXTT0=Meaning is 'so much joy, so much love'
EXTT1=Karaoke version with French backing vocals.
EXTT2=English version of Track 1.
EXTT3=Karaoke version with English backing vocals.
PLAYORDER=
